Coordinates
version=1
nRows=14
nColumns=24
inDegrees=yes

Units are S.I. units (second, meters, Newtons, ...)
Angles are in degrees.

endheader
time	pelvis_tilt	pelvis_list	pelvis_rotation	pelvis_tx	pelvis_ty	pelvis_tz	hip_flexion_r	hip_adduction_r	hip_rotation_r	knee_angle_r	ankle_angle_r	subtalar_angle_r	mtp_angle_r	hip_flexion_l	hip_adduction_l	hip_rotation_l	knee_angle_l	ankle_angle_l	subtalar_angle_l	mtp_angle_l	lumbar_extension	lumbar_bending	lumbar_rotation
      3.35500000	    -19.52393018	     10.89092073	     -4.62855118	     -2.31685187	     -0.03379697	     -0.27726225	     23.57250715	     -8.76590403	      3.43517001	    -63.38070124	    -40.78965314	    -15.96860895	     11.45044614	     40.39637643	     12.97083342	      3.45126612	    -22.77926233	     14.87803331	      8.98041897	    -71.33816849	     13.70614948	    -10.16890273	      5.53818832
      3.36000000	    -19.41000326	     10.91265783	     -4.79113765	     -2.30957005	     -0.03221238	     -0.27716699	     24.63171823	     -8.30574324	      4.07191398	    -64.53545275	    -39.40005061	    -17.60542609	     11.00696512	     39.41724008	     12.91466977	      3.16210286	    -22.23328332	     15.45467735	      9.54598506	    -71.30332462	     13.65733712	    -10.11570342	      5.56559818
      3.36500000	    -19.36356027	     10.85701834	     -4.82060612	     -2.30221932	     -0.03070114	     -0.27704111	     25.72947827	     -7.80823907	      4.42175573	    -65.72681465	    -37.24031045	    -18.80321547	      7.70991240	     38.50216125	     12.82657814	      2.84731531	    -21.71724945	     16.09351244	     10.30263619	    -71.55798720	     13.67102349	    -10.03179184	      5.39197133
      3.37000000	    -19.18608045	     10.86383204	     -4.96615164	     -2.29484006	     -0.02894834	     -0.27682841	     26.68087426	     -7.34288347	      4.92820795	    -66.72500589	    -35.36952199	    -19.91493042	      5.49893984	     37.36258842	     12.77766843	      2.63837904	    -21.01718180	     16.59690794	     10.84629944	    -71.75210130	     13.57045788	     -9.99501281	      5.37254135
      3.37500000	    -19.07149870	     10.87826782	     -5.14086780	     -2.28750249	     -0.02721923	     -0.27674497	     27.67356228	     -6.88375636	      5.50358693	    -67.51150480	    -34.03741874	    -21.14134447	      5.20081476	     36.25666857	     12.75087988	      2.52316882	    -20.22899688	     16.91030915	     11.12048099	    -71.75196717	     13.54594881	     -9.92092343	      5.42430397
      3.38000000	    -18.96993043	     10.76353684	     -5.19780092	     -2.28019077	     -0.02553841	     -0.27654211	     28.66293758	     -6.33695785	      5.73427104	    -68.39299212	    -31.72613494	    -21.74062978	      0.67772466	     35.18653789	     12.62977099	      2.39772948	    -19.53917239	     17.37120754	     11.65544734	    -72.09608912	     13.49358592	     -9.78230646	      5.32308166
      3.38500000	    -18.77041322	     10.71362017	     -5.30510295	     -2.27277775	     -0.02369435	     -0.27644581	     29.47724425	     -5.88837739	      6.12807950	    -68.97927540	    -30.17690122	    -22.40600692	     -0.38476894	     33.95906345	     12.59068838	      2.26694779	    -18.71821237	     17.62169472	     11.99916732	    -72.14985247	     13.37062466	     -9.68898113	      5.31326352
      3.39000000	    -18.63832725	     10.56877986	     -5.40072816	     -2.26547866	     -0.02190856	     -0.27632257	     30.36962663	     -5.33119303	      6.40863186	    -69.54831718	    -28.38581021	    -22.75384218	     -3.34209198	     32.76814347	     12.48103121	      2.42063757	    -17.85339213	     17.84168155	     12.13320908	    -72.30146618	     13.29026020	     -9.49555544	      5.23463521
      3.39500000	    -18.55448350	     10.48056420	     -5.53868433	     -2.25823655	     -0.02022240	     -0.27619047	     31.29656959	     -4.82732639	      6.79885132	    -69.92178045	    -27.37201059	    -23.36850862	     -3.60933029	     31.64706964	     12.39434771	      2.41782774	    -16.97148820	     17.95591313	     12.25038672	    -72.30127742	     13.27428998	     -9.34050522	      5.25643079
      3.40000000	    -18.45984788	     10.28158913	     -5.55927700	     -2.25094286	     -0.01852624	     -0.27613235	     32.16355835	     -4.30942372	      6.86382160	    -70.29576326	    -25.58459481	    -23.46271871	     -7.03099016	     30.47855766	     12.28377201	      2.70129147	    -16.07818939	     18.02689479	     12.20340620	    -72.32022493	     13.22161830	     -9.11206471	      5.16664600
      3.40500000	    -18.32970686	     10.07550777	     -5.60878465	     -2.24371393	     -0.01680134	     -0.27613478	     32.93174126	     -3.79776434	      7.07782665	    -70.43613401	    -24.53592643	    -23.57514531	     -7.04273474	     29.27143138	     12.16402287	      2.94628350	    -15.15587637	     18.03341777	     12.11315596	    -72.32722603	     13.12161364	     -8.86335841	      5.07205952
      3.41000000	    -18.22471563	      9.83948040	     -5.61510459	     -2.23649924	     -0.01513384	     -0.27620976	     33.69622546	     -3.30832563	      7.18999389	    -70.48379462	    -23.49569219	    -23.58777617	     -7.23724254	     28.05564421	     12.05410687	      3.44963389	    -14.17364886	     17.92864477	     11.74644609	    -72.32693511	     13.03960722	     -8.59129808	      4.95209449
      3.41500000	    -18.14528025	      9.54970355	     -5.57505549	     -2.22932699	     -0.01353298	     -0.27630904	     34.44622502	     -2.80821646	      7.20979500	    -70.42722173	    -22.45767008	    -23.47966459	     -7.42404062	     26.87347119	     11.90325751	      4.02583720	    -13.21073518	     17.79430429	     11.33189357	    -72.29101493	     12.96800617	     -8.27725632	      4.78005803
      3.42000000	    -18.08196891	      9.22364074	     -5.50910728	     -2.22220176	     -0.01199635	     -0.27639553	     35.17675851	     -2.30045717	      7.17362399	    -70.26438045	    -21.43772186	    -23.28104804	     -7.47538066	     25.71696902	     11.71494605	      4.65396736	    -12.26223357	     17.62332364	     10.87081651	    -72.22641418	     12.90273621	     -7.93475952	      4.58450793
